<?xml version="1.0" encoding="UTF-8" standalone="yes"?>
<!DOCTYPE svg PUBLIC "-//W3C//DTD SVG 1.0//EN" "http://www.w3.org/TR/2001/REC-SVG-20010904/DTD/svg10.dtd">
<svg height="960" onload="init(evt)" width="1184" xmlns="http://www.w3.org/2000/svg" xmlns:svg="http://www.w3.org/2000/svg" xmlns:xlink="http://www.w3.org/1999/xlink">	
	<g id="speed y gridlines">
		<line fill="none" id="speed y line 0" stroke="#CCCCCC" stroke-width="0.5" x1="80" x2="1104" y1="880" y2="880" />		<text fill="#000000" font-family="Verdana" font-size="10" id="speed y label 0" text-anchor="end" x="78" y="884">0 kt
		</text>
		<line fill="none" id="speed y line 1" stroke="#CCCCCC" stroke-width="0.5" x1="80" x2="1104" y1="717" y2="717" />		<text fill="#000000" font-family="Verdana" font-size="10" id="speed y label 1" text-anchor="end" x="78" y="721">5 kt
		</text>
		<line fill="none" id="speed y line 2" stroke="#CCCCCC" stroke-width="0.5" x1="80" x2="1104" y1="553" y2="553" />		<text fill="#000000" font-family="Verdana" font-size="10" id="speed y label 2" text-anchor="end" x="78" y="557">10 kt
		</text>
		<line fill="none" id="speed y line 3" stroke="#CCCCCC" stroke-width="0.5" x1="80" x2="1104" y1="390" y2="390" />		<text fill="#000000" font-family="Verdana" font-size="10" id="speed y label 3" text-anchor="end" x="78" y="394">15 kt
		</text>
		<line fill="none" id="speed y line 4" stroke="#CCCCCC" stroke-width="0.5" x1="80" x2="1104" y1="226" y2="226" />		<text fill="#000000" font-family="Verdana" font-size="10" id="speed y label 4" text-anchor="end" x="78" y="230">20 kt
		</text>
		<line fill="none" id="speed y line 5" stroke="#CCCCCC" stroke-width="0.5" x1="80" x2="1104" y1="80" y2="80" />		<text fill="#000000" font-family="Verdana" font-size="10" id="speed y label 5" text-anchor="end" x="78" y="84">24.5 kt
		</text>
	</g>
	<g id="elapsed_time x gridlines">
		<line fill="none" id="elapsed_time x line 0" stroke="#CCCCCC" stroke-width="0.5" x1="80.5" x2="80.5" y1="80" y2="880" />		<text fill="#000000" font-family="Verdana" font-size="10" id="elapsed_time x label 0" text-anchor="end" transform="translate(85.5,883.333333333333) rotate(-90) translate(-85.5,-883.333333333333)" x="85.5" y="883.333333333333">0 s
		</text>
		<line fill="none" id="elapsed_time x line 1" stroke="#CCCCCC" stroke-width="0.5" x1="202.086321538827" x2="202.086321538827" y1="80" y2="880" />		<text fill="#000000" font-family="Verdana" font-size="10" id="elapsed_time x label 1" text-anchor="end" transform="translate(207.086321538827,883.333333333333) rotate(-90) translate(-207.086321538827,-883.333333333333)" x="207.086321538827" y="883.333333333333">1000 s
		</text>
		<line fill="none" id="elapsed_time x line 2" stroke="#CCCCCC" stroke-width="0.5" x1="323.672643077654" x2="323.672643077654" y1="80" y2="880" />		<text fill="#000000" font-family="Verdana" font-size="10" id="elapsed_time x label 2" text-anchor="end" transform="translate(328.672643077654,883.333333333333) rotate(-90) translate(-328.672643077654,-883.333333333333)" x="328.672643077654" y="883.333333333333">2000 s
		</text>
		<line fill="none" id="elapsed_time x line 3" stroke="#CCCCCC" stroke-width="0.5" x1="445.258964616481" x2="445.258964616481" y1="80" y2="880" />		<text fill="#000000" font-family="Verdana" font-size="10" id="elapsed_time x label 3" text-anchor="end" transform="translate(450.258964616481,883.333333333333) rotate(-90) translate(-450.258964616481,-883.333333333333)" x="450.258964616481" y="883.333333333333">3000 s
		</text>
		<line fill="none" id="elapsed_time x line 4" stroke="#CCCCCC" stroke-width="0.5" x1="566.845286155308" x2="566.845286155308" y1="80" y2="880" />		<text fill="#000000" font-family="Verdana" font-size="10" id="elapsed_time x label 4" text-anchor="end" transform="translate(571.845286155308,883.333333333333) rotate(-90) translate(-571.845286155308,-883.333333333333)" x="571.845286155308" y="883.333333333333">4000 s
		</text>
		<line fill="none" id="elapsed_time x line 5" stroke="#CCCCCC" stroke-width="0.5" x1="688.431607694134" x2="688.431607694134" y1="80" y2="880" />		<text fill="#000000" font-family="Verdana" font-size="10" id="elapsed_time x label 5" text-anchor="end" transform="translate(693.431607694134,883.333333333333) rotate(-90) translate(-693.431607694134,-883.333333333333)" x="693.431607694134" y="883.333333333333">5000 s
		</text>
		<line fill="none" id="elapsed_time x line 6" stroke="#CCCCCC" stroke-width="0.5" x1="810.017929232961" x2="810.017929232961" y1="80" y2="880" />		<text fill="#000000" font-family="Verdana" font-size="10" id="elapsed_time x label 6" text-anchor="end" transform="translate(815.017929232961,883.333333333333) rotate(-90) translate(-815.017929232961,-883.333333333333)" x="815.017929232961" y="883.333333333333">6000 s
		</text>
		<line fill="none" id="elapsed_time x line 7" stroke="#CCCCCC" stroke-width="0.5" x1="931.604250771788" x2="931.604250771788" y1="80" y2="880" />		<text fill="#000000" font-family="Verdana" font-size="10" id="elapsed_time x label 7" text-anchor="end" transform="translate(936.604250771788,883.333333333333) rotate(-90) translate(-936.604250771788,-883.333333333333)" x="936.604250771788" y="883.333333333333">7000 s
		</text>
		<line fill="none" id="elapsed_time x line 8" stroke="#CCCCCC" stroke-width="0.5" x1="1053.19057231062" x2="1053.19057231062" y1="80" y2="880" />		<text fill="#000000" font-family="Verdana" font-size="10" id="elapsed_time x label 8" text-anchor="end" transform="translate(1058.19057231062,883.333333333333) rotate(-90) translate(-1058.19057231062,-883.333333333333)" x="1058.19057231062" y="883.333333333333">8000 s
		</text>
		<line fill="none" id="elapsed_time x line 9" stroke="#CCCCCC" stroke-width="0.5" x1="1104.5" x2="1104.5" y1="80" y2="880" />		<text fill="#000000" font-family="Verdana" font-size="10" id="elapsed_time x label 9" text-anchor="end" transform="translate(1109.5,883.333333333333) rotate(-90) translate(-1109.5,-883.333333333333)" x="1109.5" y="883.333333333333">8422 s
		</text>
	</g>
	<g id="2014-02-01T22:18:12Z (t1) track" opacity="1">
		<path d="M 81.7022 864.1304  L  82.1886 825.7992  L  82.6749 843.9797  L  84.3771 864.8227  L  84.8635 856.3031  L  85.4714 828.0252  L  86.0793 836.9858  L  86.8088 818.2723  L  87.6599 840.0819  L  88.1463 838.8782  L  88.8758 834.5690  L  89.4837 852.2297  L  90.0917 850.3025  L  91.1859 867.0339  L  91.7939 860.3803  L  92.5234 858.3569  L  93.1313 861.5631  L  94.3472 865.6461  L  95.0767 870.0396  L  96.1710 858.4077  L  96.9005 862.7258  L  97.5084 868.3970  L  98.1164 853.4838  L  98.8459 865.1485  L  100.3049 862.3370  L  101.3992 852.3400  L  102.1287 850.7499  L  106.8706 867.1812  L  107.6001 836.5696  L  108.5728 811.0683  L  109.3023 819.1808  L  109.4239 824.4729  L  109.6671 825.0706  L  109.7886 827.9032  L  110.6398 824.9681  L  111.3693 853.3234  L  114.0442 864.8324  L  115.1384 853.8341  L  115.6248 820.0351  L  115.9896 825.8187  L  116.5975 804.9754  L  117.0838 797.3926  L  117.2054 830.9028  L  118.1781 851.0134  L  119.7587 859.3438  L  120.8530 843.6175  L  121.7041 860.6132  L  122.3120 849.6968  L  123.0416 834.2340  L  124.0142 780.0536  L  124.8654 717.3311  L  125.3517 715.5454  L  125.5949 772.5101  L  125.7165 762.7068  L  126.2028 763.7712  L  126.4460 806.9301  L  127.2971 779.0746  L  128.3914 772.3692  L  128.5129 784.1753  L  128.8777 784.3450  L  129.2425 786.6939  L  130.2152 784.4008  L  131.4310 776.5709  L  132.2821 790.7674  L  133.0116 779.7994  L  133.4980 789.9461  L  134.4707 787.6101  L  134.5923 784.2244  L  135.0786 814.6989  L  135.6865 815.6989  L  136.4161 784.0170  L  136.7808 774.6728  L  137.3887 755.4693  L  138.4830 760.5338  L  139.8205 752.6876  L  140.5500 780.3092  L  141.0363 718.7557  L  141.8874 762.0602  L  142.9817 773.5733  L  143.5896 733.2971  L  144.4408 726.5360  L  144.9271 814.3489  L  145.5350 860.7073  L  146.0214 855.3990  L  146.6293 870.8889  L  148.0883 866.6185  L  148.6963 858.5653  L  150.5201 858.2321  L  151.2496 845.6397  L  151.9791 809.7651  L  152.7086 824.6646  L  153.3166 843.7299  L  154.2892 845.8202  L  155.1403 845.1184  L  155.7483 835.1622  L  156.7210 827.1208  L  157.6937 806.4714  L  158.4232 827.3559  L  159.1527 857.6989  L  159.7606 832.0147  L  160.1254 806.5233  L  160.3686 795.8447  L  161.0981 817.6620  L  161.4628 791.4255  L  161.7060 765.2623  L  162.6787 749.4674  L  163.6514 779.7940  L  164.2593 785.3539  L  164.3809 797.1312  L  164.9888 791.3502  L  165.1104 792.5260  L  165.3536 784.3737  L  165.7184 788.9913  L  166.2047 788.0641  L  166.5695 792.7825  L  166.6910 782.8558  L  167.2990 799.4565  L  167.4206 707.7363  L  167.7853 798.0124  L  168.0285 795.1918  L  168.7580 781.4985  L  169.3659 798.0976  L  169.7307 787.4861  L  169.9739 768.7942  L  171.0682 773.9520  L  171.4329 768.3919  L  171.6761 791.0099  L  171.9193 818.3500  L  172.2840 801.4573  L  172.4056 762.1163  L  172.8919 760.4890  L  173.3783 790.2756  L  173.6215 803.5653  L  174.9589 814.1611  L  176.1748 826.4057  L  177.0259 828.2221  L  178.2417 840.7979  L  178.8497 848.0368  L  179.5792 820.6268  L  180.4303 787.9911  L  181.4030 793.9230  L  181.5246 824.1472  L  182.0109 825.7000  L  182.1325 817.5990  L  182.8620 795.7968  L  183.4700 767.6894  L  183.7131 751.5616  L  184.8074 782.7672  L  185.6585 793.2061  L  186.9960 804.9402  L  187.9687 840.2562  L  188.6982 823.5978  L  189.5493 793.9792  L  190.4004 756.9841  L  191.7378 743.6216  L  191.8594 729.0932  L  192.5889 693.8274  L  193.6832 756.6082  L  194.5343 759.0581  L  195.7502 779.1802  L  196.9660 791.5654  L  197.8171 755.8683  L  198.6682 805.2651  L  198.7898 819.3153  L  200.2489 808.3310  L  200.9784 789.1458  L  201.8295 768.9379  L  202.6806 775.8968  L  203.2885 834.8873  L  203.4101 863.0862  L  205.7203 878.2815  L  206.4498 832.9231  L  207.3009 806.4610  L  207.7872 742.6052  L  208.1520 759.8331  L  208.3952 751.9019  L  208.6383 756.6648  L  208.8815 749.4028  L  209.2463 744.1114  L  209.4894 747.9049  L  210.0974 720.6270  L  210.8269 769.0117  L  211.0701 739.8666  L  211.3132 754.5339  L  212.0427 756.4440  L  212.7723 774.7305  L  213.3802 815.5086  L  213.6234 814.6297  L  213.8665 826.6072  L  214.4745 817.5176  L  214.5961 791.0090  L  215.3256 761.8049  L  216.0551 763.8398  L  216.4199 756.6015  L  216.7846 751.6906  L  216.9062 753.5516  L  217.5141 776.2867  L  217.7573 781.8554  L  218.2436 759.5555  L  218.3652 742.1368  L  218.8516 742.9196  L  219.0948 740.8363  L  219.8243 752.0889  L  220.6754 743.4805  L  221.2833 752.2472  L  221.8912 768.7882  L  222.4992 770.2950  L  222.6208 767.1442  L  222.7423 737.5632  L  222.9855 724.6376  L  223.5934 736.1566  L  224.2014 745.0633  L  225.0525 740.1398  L  225.6604 755.1112  L  225.7820 764.7594  L  225.9036 772.5635  L  226.3899 829.9242  L  227.4842 873.2065  L  228.0921 876.9123  L  228.2137 815.3530  L  228.4569 796.2934  L  229.1864 771.3577  L  229.6728 766.5610  L  230.1591 730.9896  L  230.4023 752.4961  L  230.7670 786.5872  L  231.9829 810.8811  L  232.8340 778.1984  L  233.5635 729.9126  L  234.4146 737.5472  L  235.3873 720.3524  L  236.3600 755.4097  L  236.9679 789.4185  L  237.8190 789.2650  L  238.6701 770.6715  L  239.5213 746.8718  L  240.3724 773.1186  L  241.2235 783.5077  L  242.1962 773.3943  L  243.0473 777.8029  L  245.1142 776.9134  L  245.8437 770.6330  L  245.9653 804.4762  L  246.4517 810.5808  L  247.1812 791.2010  L  248.1539 768.2389  L  248.8834 758.9773  L  249.8561 759.4005  L  250.7072 769.3528  L  251.0720 806.5795  L  251.4367 824.7123  L  252.0446 835.8594  L  252.5310 830.7048  L  253.1389 803.2078  L  254.2332 779.0886  L  255.3275 742.7200  L  256.4218 788.0037  L  256.6649 837.1433  L  256.9081 845.9726  L  258.1240 869.5872  L  260.0693 876.4669  L  261.6500 869.0996  L  262.3795 863.1343  L  263.3522 865.4388  L  265.1760 872.6799  L  266.0271 862.2733  L  267.1213 851.5113  L  267.8509 814.8557  L  267.9725 824.4178  L  268.7020 820.7124  L  268.9451 818.7068  L  269.4315 823.7165  L  269.6747 819.4443  L  269.7962 816.5446  L  270.2826 788.1104  L  270.5258 773.5752  L  270.8905 767.8686  L  271.0121 772.2130  L  271.7416 749.3838  L  272.9575 771.5675  L  273.9302 758.0669  L  274.7813 735.4761  L  275.0245 740.3606  L  275.3892 744.1800  L  275.7540 744.1195  L  275.9972 745.9000  L  276.2403 738.3307  L  276.7267 743.5182  L  277.3346 730.4753  L  277.9425 734.0690  L  278.6720 731.9005  L  279.4016 728.7118  L  280.1311 727.4332  L  280.4958 761.4788  L  280.7390 759.0176  L  281.3469 794.2595  L  281.7117 797.2193  L  282.0765 783.9641  L  282.8060 778.7931  L  283.1707 768.8683  L  283.5355 768.6624  L  283.7787 773.0892  L  284.0218 760.4927  L  284.9945 768.4680  L  285.8456 780.1646  L  286.2104 788.3814  L  286.4536 803.6247  L  287.3047 822.6293  L  287.4263 828.3289  L  288.6421 817.8114  L  289.2501 808.5639  L  289.3716 803.7423  L  289.7364 778.9288  L  289.9796 792.8012  L  290.1012 795.2935  L  290.3443 813.1846  L  290.7091 815.1535  L  291.3170 838.5409  L  292.0465 849.2959  L  292.6545 844.8556  L  293.2624 840.2336  L  293.7488 841.5823  L  294.7214 839.5746  L  295.3294 849.0667  L  296.1805 834.8764  L  296.7884 849.7698  L  297.2748 850.5005  L  297.7611 854.1040  L  298.3690 840.3862  L  299.0986 814.6174  L  300.0712 823.0047  L  300.8008 838.8828  L  302.0166 849.6045  L  303.2325 858.9294  L  305.6642 856.2576  L  306.6369 802.5247  L  307.3664 759.8032  L  307.6096 713.4957  L  308.4607 726.0215  L  309.4334 773.5626  L  310.2845 798.2863  L  310.7708 810.5153  L  311.0140 820.7950  L  312.1083 827.6756  L  312.7162 784.4017  L  313.6889 755.7678  L  314.7832 745.4288  L  314.9048 753.9114  L  315.7559 726.1489  L  316.4854 718.8950  L  317.2149 691.1425  L  317.9444 694.2392  L  318.5524 714.9052  L  319.1603 696.9768  L  319.4035 739.5520  L  320.0114 740.8797  L  320.9841 764.7914  L  321.2273 791.9455  L  321.7136 819.6275  L  322.3215 838.8069  L  322.5647 852.5136  L  323.7806 866.8815  L  325.2396 867.4154  L  325.8475 872.0075  L  327.6713 869.6867  L  328.6440 866.9773  L  329.4951 851.6825  L  330.1031 840.2885  L  330.7110 852.4920  L  331.1973 845.6285  L  332.1700 826.5119  L  332.5348 814.2782  L  332.8995 789.2882  L  333.5075 781.0211  L  334.4802 778.9551  L  334.6018 773.1034  L  334.8449 776.6798  L  335.2097 777.8961  L  336.1824 762.6544  L  337.1551 774.5285  L  338.1278 765.5861  L  338.2493 824.6101  L  338.6141 803.9735  L  339.1005 753.1782  L  339.2220 754.1888  L  339.8300 755.6869  L  340.6811 764.7639  L  341.6538 800.3072  L  342.1401 811.5686  L  342.8696 819.2585  L  344.3287 830.4382  L  345.0582 843.4212  L  345.7877 832.3292  L  346.2740 799.4768  L  346.5172 785.8637  L  347.0036 782.9079  L  347.2467 782.3085  L  348.4626 813.0958  L  349.5569 829.7373  L  350.5296 827.4492  L  350.7727 792.4819  L  351.0159 783.6007  L  351.6238 778.4877  L  351.9886 768.4813  L  352.4749 765.2402  L  352.7181 782.5859  L  352.9613 789.4816  L  353.2045 767.3005  L  353.4476 737.4337  L  354.2987 736.7034  L  355.1498 757.6564  L  355.7578 759.9364  L  356.4873 797.7228  L  356.6089 800.2032  L  357.3384 783.5264  L  357.7032 797.1875  L  358.3111 823.8843  L  359.5270 827.9655  L  360.7428 845.0314  L  362.4450 877.8481  L  362.9314 846.8135  L  363.5393 800.6036  L  363.6609 768.3950  L  363.9041 755.8071  L  364.6336 740.1153  L  365.1199 796.1894  L  365.8494 793.7546  L  366.4574 747.2308  L  366.9437 699.0548  L  367.6732 738.5700  L  367.7948 790.4452  L  368.1596 809.5630  L  368.6459 811.7023  L  369.3754 774.7166  L  369.9834 735.7191  L  370.1050 695.0774  L  370.5913 713.4721  L  371.5640 756.5815  L  372.2935 760.1493  L  372.5367 802.3621  L  372.7799 825.0463  L  373.5094 833.3536  L  374.1173 814.5500  L  374.7252 726.0353  L  375.3332 675.2815  L  376.0627 671.3958  L  376.6706 753.0396  L  377.2786 744.1229  L  378.0081 751.3645  L  378.8592 815.5560  L  379.1024 799.0736  L  379.2239 808.8380  L  380.3182 805.2889  L  381.1693 761.4960  L  382.1420 757.7296  L  382.9931 741.9490  L  383.1147 776.1591  L  384.2090 782.6162  L  385.1817 766.1881  L  385.5464 784.5659  L  385.6680 809.8180  L  386.5191 855.4860  L  389.6804 869.9028  L  390.5315 835.8868  L  391.2610 805.8691  L  391.3826 775.7377  L  391.8689 776.7590  L  392.7200 783.7073  L  393.5711 773.4814  L  394.4222 782.2691  L  394.7870 779.0176  L  394.9086 766.8605  L  395.6381 769.9659  L  396.1244 769.4510  L  396.9755 776.6819  L  397.3403 759.5493  L  397.4619 726.4345  L  398.1914 732.6958  L  399.0425 716.0053  L  399.8936 799.6671  L  400.8663 807.7393  L  402.0822 817.3471  L  402.4469 800.0082  L  403.2980 760.0031  L  404.3923 792.0231  L  404.6355 763.4510  L  404.8787 747.1922  L  405.4866 718.0566  L  406.0945 728.7250  L  406.2161 748.0370  L  406.7024 733.0412  L  407.3104 740.2452  L  407.4320 760.7590  L  408.0399 762.7317  L  408.1615 760.7657  L  408.2831 750.4742  L  408.5262 750.0540  L  409.0126 767.6792  L  409.1342 765.9877  L  409.4989 759.9454  L  409.7421 768.9521  L  410.2284 773.5372  L  410.8364 784.3572  L  411.8091 812.4675  L  413.0249 846.7257  L  413.7545 865.1414  L  423.9677 876.3854  L  424.6972 876.8395  L  425.3052 854.2389  L  426.3994 851.9845  L  427.3721 839.1891  L  427.9801 798.1748  L  428.1016 799.9686  L  428.5880 805.5661  L  428.7096 834.9531  L  429.5607 838.8775  L  430.6550 818.4890  L  431.3845 775.4617  L  432.1140 766.2429  L  432.4787 746.4601  L  432.7219 777.9316  L  433.4514 822.8172  L  433.5730 810.2850  L  434.6673 811.5022  L  435.7616 805.0580  L  437.0990 787.6100  L  437.5854 776.4536  L  438.1933 776.5559  L  439.1660 764.2040  L  440.0171 749.6275  L  440.7466 766.4744  L  441.4761 788.5914  L  442.2057 820.7700  L  442.8136 795.6446  L  443.4215 814.0377  L  444.2726 793.9069  L  445.0021 788.2032  L  445.6101 780.1464  L  445.8532 747.7741  L  446.5828 762.4853  L  446.7043 793.7025  L  447.1907 796.3707  L  447.5555 817.7025  L  448.0418 822.2750  L  448.2850 827.9383  L  448.6497 836.9022  L  449.2577 848.6590  L  449.6224 821.2826  L  449.7440 801.2500  L  450.3519 788.6252  L  450.9599 806.3504  L  451.2030 802.3052  L  452.0541 807.8808  L  452.7837 799.4002  L  452.9052 776.3098  L  453.8779 799.3218  L  454.1211 819.6957  L  454.6075 810.1333  L  454.9722 791.8266  L  455.0938 777.1202  L  455.3370 762.6290  L  455.4586 766.2099  L  455.7017 780.2448  L  456.3097 756.6885  L  456.4313 761.4822  L  457.2824 796.2759  L  458.1335 778.3620  L  458.6198 720.4903  L  458.9846 727.2592  L  459.2277 772.9039  L  459.7141 796.4831  L  459.9573 803.9655  L  461.0515 797.6971  L  461.6595 778.6603  L  462.2674 768.7616  L  462.5106 801.0187  L  462.7537 797.9805  L  462.8753 803.3928  L  463.3617 785.2560  L  463.6048 769.7857  L  463.9696 757.6119  L  464.6991 739.0491  L  465.4286 744.3276  L  465.5502 735.5970  L  466.0366 712.6701  L  466.1582 701.3676  L  466.7661 682.8467  L  467.2524 745.2552  L  468.3467 775.0211  L  468.4683 797.0823  L  468.9546 814.9506  L  469.4410 815.5120  L  470.0489 799.4909  L  470.1705 788.1381  L  470.6569 775.7374  L  470.7784 786.6057  L  471.5080 781.5408  L  471.6295 768.2930  L  472.2375 774.1875  L  472.7238 769.1189  L  473.2102 766.4565  L  473.8181 769.1842  L  474.7908 803.3592  L  475.7635 798.8635  L  476.4930 797.9112  L  476.8578 787.7939  L  477.4657 754.2931  L  478.1952 726.3789  L  478.8031 749.4226  L  480.0190 798.6086  L  480.7485 754.0067  L  481.4780 714.6549  L  482.2076 701.7069  L  482.6939 752.9622  L  482.8155 768.7657  L  483.4234 778.4588  L  484.0313 728.0923  L  484.8825 696.3041  L  485.8551 722.8845  L  486.7062 743.4211  L  487.5573 827.7282  L  488.0437 847.1219  L  488.1653 826.6282  L  489.0164 850.3761  L  489.8675 835.0410  L  490.2322 792.0244  L  490.4754 780.4997  L  491.0834 746.6367  L  491.4481 735.9128  L  491.6913 724.4612  L  491.8129 719.0504  L  492.1776 714.1318  L  492.6640 717.5286  L  492.7856 695.7736  L  493.6367 704.9977  L  494.2446 733.7358  L  494.7309 749.3782  L  494.9741 718.8231  L  495.2173 711.1737  L  495.7036 733.8165  L  496.4332 742.3637  L  497.0411 736.2989  L  497.6490 691.4479  L  498.3785 741.7711  L  499.1081 749.9510  L  499.8376 728.1293  L  500.3239 679.3825  L  500.5671 641.2694  L  501.1750 551.7045  L  501.4182 408.6085  L  501.6614 376.5264  L  501.9045 402.8261  L  502.1477 731.8852  L  502.3909 828.6255  L  502.5125 817.1881  L  502.7556 803.2811  L  503.1204 760.5034  L  503.4852 717.1019  L  504.0931 700.0849  L  505.0658 737.3961  L  505.7953 737.9249  L  506.1601 790.9994  L  506.4032 820.5121  L  507.0112 825.4629  L  507.4975 816.9558  L  507.9839 816.4975  L  508.2270 798.3819  L  509.1997 738.7396  L  509.9292 793.9926  L  510.0508 830.1778  L  510.7803 822.5744  L  511.1451 799.3945  L  511.8746 730.9312  L  511.9962 719.1343  L  512.3610 713.4149  L  512.9689 662.1105  L  513.9416 774.3561  L  514.4279 751.2141  L  515.1574 776.8554  L  515.7654 796.8275  L  516.4949 800.3629  L  516.9812 811.8118  L  517.2244 794.5660  L  517.8323 768.7271  L  518.4403 702.1357  L  519.0482 654.0539  L  519.7777 738.2067  L  520.3857 712.2655  L  521.1152 686.6615  L  521.8447 749.7504  L  521.9663 716.7338  L  522.6958 712.6967  L  523.5469 636.0266  L  524.1548 527.6852  L  524.6412 403.8496  L  524.7628 391.5489  L  525.2491 459.3040  L  525.4923 718.5374  L  525.6139 793.3678  L  526.1002 834.4007  L  526.7081 789.5423  L  527.4377 792.6899  L  527.6808 803.2418  L  528.0456 833.2306  L  528.1672 841.0578  L  528.5319 822.3918  L  529.0183 850.3101  L  529.5046 862.9722  L  530.7205 871.3265  L  534.3681 872.4186  L  534.8544 842.0275  L  535.2192 803.8637  L  535.4624 796.8130  L  536.0703 817.1799  L  536.1919 830.8817  L  536.6782 816.5544  L  536.9214 805.0514  L  537.2862 809.3815  L  537.6509 775.8511  L  538.2588 785.9110  L  538.6236 759.0517  L  538.7452 748.4598  L  539.3531 750.9636  L  539.9611 756.1854  L  540.0826 751.2712  L  540.6906 754.9734  L  541.2985 740.0997  L  541.4201 726.9523  L  542.1496 736.4998  L  542.2712 718.3737  L  543.0007 724.6583  L  543.1223 711.8492  L  543.6086 701.6834  L  544.3382 703.0139  L  545.1893 722.7687  L  546.0404 726.1611  L  546.6483 705.0748  L  547.8642 724.4677  L  548.3505 740.0171  L  548.5937 776.3507  L  548.7153 764.9738  L  549.0800 762.9996  L  549.6880 770.9846  L  549.8095 760.1187  L  550.2959 740.1994  L  550.4175 765.7658  L  551.1470 795.2976  L  551.7549 808.0429  L  551.9981 781.1096  L  552.3629 754.6266  L  552.6060 725.7110  L  553.2140 683.4964  L  553.8219 705.7708  L  553.9435 740.4463  L  554.4298 755.2762  L  554.5514 780.0237  L  555.5241 785.2933  L  556.3752 743.9437  L  556.7400 744.4257  L  556.9831 715.7357  L  557.5911 743.8662  L  557.7127 785.5038  L  558.4422 832.5639  L  560.5091 872.4238  L  560.9955 875.3539  L  562.8193 855.1031  L  563.5488 791.9977  L  563.6704 838.2378  L  564.1567 839.2338  L  565.0078 871.7271  L  570.3576 864.7216  L  570.6008 826.0726  L  571.5735 810.8279  L  572.0598 750.0851  L  572.4246 752.7507  L  572.6678 734.4688  L  573.3973 769.8806  L  573.7621 778.1568  L  573.8836 782.1751  L  574.0052 801.1869  L  574.7347 851.1687  L  575.4643 858.9308  L  576.4370 853.6106  L  577.1665 818.4094  L  577.6528 734.9765  L  578.1392 784.9653  L  578.8687 854.1322  L  579.5982 846.1235  L  580.3277 809.8328  L  581.0572 801.7369  L  581.1788 777.0891  L  581.6652 765.7927  L  582.2731 720.3415  L  583.0026 742.8355  L  583.6105 799.7657  L  584.3401 787.2013  L  585.1912 808.1915  L  585.9207 831.8305  L  586.1639 790.7351  L  586.6502 804.1419  L  586.7718 825.3284  L  587.8661 788.2491  L  588.3524 779.7695  L  589.0819 798.5451  L  589.3251 773.5722  L  589.6899 781.7719  L  589.8114 785.3168  L  590.4194 719.4152  L  590.9057 712.1160  L  591.3921 810.0640  L  592.4863 873.0666  L  593.8238 878.0005  L  594.4317 855.0945  L  595.1612 860.3101  L  596.1339 862.3325  L  596.3771 806.4970  L  597.1066 844.5162  L  614.7366 873.7101  L  617.8979 874.0671  L  619.1137 845.5692  L  619.2353 825.0252  L  619.4785 856.7362  L  620.2080 873.2850  L  621.0591 851.8476  L  621.5455 797.2242  L  621.6671 770.6268  L  622.2750 810.3742  L  623.1261 826.1081  L  623.8556 817.9180  L  624.3420 790.7224  L  624.4635 781.1511  L  624.9499 743.4650  L  625.8010 760.3576  L  626.7737 784.8767  L  628.1111 783.8133  L  628.9622 780.8560  L  629.9349 781.4159  L  630.1781 783.6817  L  630.6645 751.0385  L  631.2724 702.1131  L  631.8803 719.1976  L  632.3667 781.1945  L  632.4882 816.8368  L  633.0962 822.4496  L  633.7041 879.5882  L  634.4336 873.2915  L  635.2847 843.9476  L  635.8927 847.3638  L  637.8380 868.6444  L  638.6891 878.3397  L  640.0266 828.3376  L  640.2698 789.6090  L  640.3914 660.2457  L  641.8504 864.2847  L  643.0663 861.4939  L  643.6742 872.8360  L  644.5253 858.9933  L  645.6196 857.0389  L  645.7412 855.6825  L  646.3491 859.3887  L  646.9570 848.5179  L  647.3218 833.2626  L  647.5649 811.0297  L  648.0513 787.6940  L  648.6592 732.6948  L  649.1456 740.4358  L  649.2672 741.7544  L  649.8751 739.2483  L  650.3614 736.2725  L  650.4830 771.7230  L  651.3341 791.4217  L  652.4284 816.2120  L  653.5227 819.2800  L  654.2522 792.4321  L  654.3738 777.7325  L  654.4954 816.7384  L  654.7385 791.1158  L  655.4681 764.2749  L  656.1976 745.7254  L  657.0487 742.8161  L  657.7782 749.9359  L  658.5077 746.4704  L  659.2372 747.1846  L  660.0883 740.3918  L  660.2099 753.5843  L  660.6963 729.5814  L  660.8179 723.0312  L  661.3042 741.0267  L  661.5474 746.1908  L  662.5201 759.5294  L  663.3712 771.5074  L  664.8302 804.7486  L  665.4381 847.6493  L  666.0461 842.2195  L  667.0188 866.3012  L  667.9915 874.8240  L  668.4778 808.5871  L  668.9641 838.4506  L  669.5721 839.7730  L  669.9368 838.2459  L  670.4232 852.6015  L  671.5175 873.4056  L  672.4901 863.8345  L  673.0981 867.3382  L  673.9492 866.9666  L  674.4355 822.7610  L  674.5571 821.3115  L  674.8003 802.1877  L  674.9219 798.6027  L  675.5298 793.5381  L  675.6514 739.6348  L  676.2593 756.2457  L  677.1104 823.1409  L  677.8399 847.0340  L  678.9342 843.6827  L  679.7853 808.8868  L  680.2717 814.6164  L  680.3933 782.8124  L  681.0012 807.5649  L  681.2444 782.7265  L  682.2171 763.0219  L  682.3386 793.0126  L  682.9466 811.7058  L  683.0682 815.4962  L  684.5272 808.7760  L  684.7704 808.1922  L  685.2567 784.0489  L  685.9862 767.6243  L  686.8373 753.1295  L  687.5668 740.6651  L  688.4180 712.4533  L  689.1475 712.6643  L  689.8770 723.1472  L  690.1202 710.0427  L  690.3633 755.9857  L  690.4849 744.5933  L  690.8497 771.2361  L  691.2144 790.8545  L  692.1871 788.7320  L  692.6735 788.2428  L  693.0382 781.7082  L  693.6462 768.3287  L  694.4973 722.4031  L  695.2268 653.5979  L  695.7131 624.5976  L  695.9563 638.2047  L  696.4427 716.5104  L  697.1722 759.6089  L  697.9017 747.3146  L  698.2664 786.5851  L  698.3880 802.8034  L  698.6312 834.8786  L  698.8744 843.8687  L  699.1175 846.0739  L  699.7255 825.5207  L  700.4550 823.6622  L  700.9413 816.2659  L  701.1845 805.0684  L  701.7924 757.4600  L  701.9140 707.6478  L  702.6436 666.3316  L  703.3731 582.4556  L  703.7378 492.1052  L  703.9810 451.2361  L  704.4673 535.7822  L  704.9537 837.8135  L  705.0753 841.9839  L  705.5616 836.4827  L  705.8048 794.1392  L  706.4127 762.6855  L  706.8991 714.2218  L  707.1422 730.8659  L  707.3854 747.2199  L  707.9934 719.1342  L  708.1149 721.6682  L  708.4797 704.7868  L  708.9660 669.9540  L  709.4524 573.0858  L  709.8171 457.0871  L  709.9387 417.5185  L  710.1819 396.4849  L  710.5467 396.7982  L  710.9114 596.1611  L  711.3978 810.4876  L  711.5194 798.6263  L  712.0057 789.3859  L  712.6136 800.1851  L  713.3431 811.3185  L  713.4647 783.1047  L  714.1943 780.2957  L  714.6806 778.1958  L  714.9238 801.9061  L  715.7749 807.4233  L  715.8965 817.3280  L  716.2612 784.7951  L  716.8692 760.3186  L  717.7203 777.8749  L  717.8418 814.6703  L  718.3282 822.8140  L  718.5714 826.3700  L  718.9361 828.7524  L  719.5441 809.8845  L  720.6383 852.7235  L  721.2463 827.9915  L  721.8542 827.4653  L  722.3405 833.9716  L  722.9485 801.9330  L  723.7996 793.3047  L  724.5291 794.2452  L  725.0154 768.8716  L  725.2586 718.7690  L  725.9881 697.8306  L  726.7176 693.4592  L  727.5687 718.3843  L  728.2983 763.9772  L  729.0278 779.9735  L  729.5141 766.9823  L  730.2436 717.8078  L  730.9732 693.9973  L  731.7027 693.9878  L  732.4322 724.1568  L  733.1617 697.9455  L  734.1344 713.5151  L  734.7423 720.6842  L  735.1071 753.9345  L  735.9582 755.8206  L  736.6877 728.0754  L  737.2957 768.5569  L  737.6604 821.8797  L  737.9036 822.4865  L  738.6331 865.0505  L  739.9706 878.0380  L  740.3353 799.0320  L  740.5785 758.0284  L  741.0648 754.0192  L  741.1864 771.8061  L  741.6728 770.3822  L  741.7943 726.6937  L  742.6455 752.2829  L  743.1318 759.9155  L  743.2534 756.2902  L  743.4966 744.7447  L  744.3477 751.9901  L  745.0772 764.7767  L  745.6851 753.4490  L  746.4146 707.1513  L  746.9010 609.8487  L  747.3873 489.8929  L  747.5089 413.4385  L  748.1168 379.7299  L  748.8464 398.6172  L  748.9679 407.0814  L  749.0895 444.4270  L  749.2111 464.3393  L  749.3327 452.4733  L  749.6975 456.5969  L  750.0622 482.0511  L  750.1838 479.1145  L  750.6701 701.4852  L  751.3997 841.2528  L  752.2508 815.3808  L  752.3724 820.5906  L  752.7371 809.0068  L  753.3450 773.6216  L  753.4666 754.4651  L  754.0746 742.9087  L  754.4393 761.6123  L  754.8041 789.5415  L  755.6552 800.3757  L  755.7768 811.7000  L  756.3847 836.0001  L  756.5063 839.9717  L  756.9926 809.5970  L  757.6006 780.4192  L  758.5733 769.9654  L  759.3028 718.4511  L  759.7891 766.5677  L  760.0323 802.8016  L  760.6402 784.1787  L  760.8834 741.5852  L  761.3697 740.1265  L  761.9777 711.8638  L  762.8288 753.4804  L  763.4367 730.4641  L  764.2878 625.9107  L  764.8957 562.7234  L  765.0173 545.2210  L  765.3821 677.3933  L  765.9900 711.1605  L  767.5706 745.6712  L  768.3002 764.6788  L  768.9081 719.6425  L  769.5160 654.5557  L  769.6376 646.2078  L  770.4887 703.9503  L  771.0967 771.8921  L  771.2182 815.2770  L  771.3398 830.1323  L  771.7046 817.7871  L  772.4341 859.2489  L  773.0420 853.1403  L  773.6500 807.4012  L  774.5011 789.0202  L  775.3522 794.2564  L  775.9601 801.7477  L  776.2033 762.9402  L  776.5680 719.6564  L  777.2976 694.3937  L  777.9055 675.4540  L  778.6350 682.5000  L  779.1213 671.9629  L  779.6077 657.0215  L  780.2156 668.5840  L  780.7020 637.9243  L  780.9451 653.8380  L  781.4315 664.0747  L  781.6747 694.5457  L  781.9178 738.6691  L  782.5258 740.7893  L  783.1337 712.5487  L  783.7416 637.7683  L  784.3496 642.9524  L  784.8359 786.3505  L  785.2007 776.5456  L  785.4438 771.1429  L  785.9302 765.5064  L  786.1734 773.7421  L  786.5381 793.5143  L  786.7813 780.0522  L  787.3892 752.8951  L  787.9972 738.2313  L  788.6051 678.3983  L  789.0914 605.5507  L  789.5778 689.2442  L  790.3073 786.6246  L  790.6720 772.9480  L  791.2800 782.1055  L  791.5232 790.5924  L  791.7663 801.9493  L  792.3743 838.6720  L  793.1038 845.8005  L  793.7117 834.8866  L  794.5628 840.4505  L  795.0492 840.7216  L  796.1434 826.1946  L  796.9945 795.9983  L  797.7241 761.1539  L  798.3320 732.2618  L  799.1831 737.4130  L  799.9126 755.1826  L  800.1558 772.8023  L  801.1285 775.2218  L  801.7364 778.6111  L  802.4659 746.3570  L  803.3170 737.0953  L  804.0465 722.0447  L  804.6545 771.5153  L  805.6272 796.9208  L  806.3567 791.8711  L  806.4783 799.9765  L  806.7214 773.6917  L  806.8430 784.5646  L  807.5725 722.5425  L  808.0589 753.5456  L  808.5452 760.0068  L  809.5179 745.3199  L  810.4906 752.9037  L  811.0986 676.9915  L  811.7065 669.9918  L  811.9497 698.5409  L  812.4360 769.1903  L  812.5576 803.8536  L  813.2871 832.7209  L  813.4087 847.3530  L  813.8950 870.4322  L  815.3541 870.5386  L  815.9620 830.4397  L  816.6915 781.0306  L  817.2995 737.0957  L  818.0290 708.5538  L  818.7585 713.9358  L  819.3664 693.5701  L  819.6096 679.5904  L  820.0959 711.9590  L  820.7039 709.1507  L  821.5550 720.2405  L  822.2845 756.0773  L  822.6493 772.3428  L  822.8924 763.0700  L  823.5004 710.8476  L  823.9867 649.8800  L  824.2299 626.2651  L  824.3515 634.5644  L  824.5946 688.8563  L  825.0810 679.3310  L  825.9321 709.8088  L  826.4184 722.5436  L  826.9048 745.6635  L  827.5127 746.2394  L  828.1206 682.6366  L  828.6070 660.5728  L  829.2149 740.6244  L  829.9444 748.1231  L  830.0660 739.5525  L  830.5524 764.1546  L  830.9171 804.3461  L  831.6466 832.8584  L  831.7682 849.6174  L  832.4977 840.0796  L  833.1057 829.3928  L  833.5920 832.3495  L  833.7136 814.6601  L  834.0784 811.9558  L  834.6863 795.6543  L  835.4158 760.3060  L  836.2669 766.9482  L  836.7533 713.5128  L  836.8749 661.4682  L  837.6044 620.8299  L  838.0907 584.1356  L  838.4555 545.5058  L  838.6986 613.1580  L  839.4282 720.5618  L  840.2793 810.6563  L  841.1304 807.0135  L  841.2520 771.6571  L  841.3735 759.4769  L  841.8599 729.7598  L  841.9815 674.2632  L  842.5894 728.8240  L  843.5621 755.7215  L  844.5348 766.4822  L  845.1427 737.9819  L  845.8722 752.2302  L  846.7233 725.3610  L  847.4529 783.4569  L  847.9392 812.8546  L  848.5471 814.1520  L  849.0335 785.5012  L  849.6414 776.2849  L  850.0062 750.3737  L  850.4925 703.6253  L  851.2220 716.2015  L  851.7084 781.9819  L  851.8300 849.3883  L  851.9516 842.9757  L  852.4379 856.3188  L  852.9242 835.0373  L  853.5322 873.4281  L  854.6265 874.7087  L  857.9093 873.0961  L  858.8820 871.0608  L  859.6115 861.1005  L  860.2194 845.9050  L  860.7058 799.8929  L  860.8274 762.0740  L  861.3137 725.7606  L  861.8000 681.3940  L  862.2864 661.2171  L  863.0159 697.5333  L  863.8670 769.7430  L  864.4749 789.6454  L  864.7181 780.0924  L  865.3261 783.7541  L  866.0556 752.7586  L  866.1772 754.9596  L  866.2987 742.2717  L  866.5419 760.3976  L  867.2714 757.0564  L  868.0009 723.8132  L  868.4873 710.3377  L  869.0952 749.0702  L  869.4600 758.6129  L  869.8247 772.3235  L  870.3111 745.9669  L  870.7974 760.2004  L  870.9190 753.7769  L  871.0406 753.4968  L  871.4054 762.9968  L  871.8917 742.8057  L  872.0133 775.0542  L  872.2565 814.5229  L  872.8644 820.4876  L  873.7155 783.2734  L  874.4450 732.2346  L  875.0530 700.9238  L  875.6609 806.7012  L  875.7825 823.7767  L  876.9983 840.6872  L  877.8494 842.9228  L  878.9437 863.8206  L  880.1596 852.7410  L  882.5913 873.1881  L  883.3208 843.7458  L  884.1719 836.8738  L  884.9014 837.5108  L  885.6310 851.9016  L  886.2389 833.4140  L  886.7252 812.3571  L  886.8468 758.2907  L  887.4548 806.4578  L  887.9411 822.8777  L  888.0627 835.4036  L  888.5490 856.7034  L  889.6433 860.7666  L  890.6160 850.7677  L  891.5887 860.9320  L  894.7499 865.9099  L  895.4795 814.6885  L  895.9658 779.7745  L  896.2090 807.8510  L  896.6953 840.9236  L  896.9385 862.6380  L  897.6680 865.6860  L  898.2759 849.0505  L  898.8839 835.7961  L  899.3702 820.7035  L  899.6134 798.5824  L  900.2213 802.2310  L  900.9508 828.7678  L  901.5588 849.6969  L  901.6804 757.5510  L  901.9235 837.9712  L  902.1667 830.9884  L  902.4099 851.8388  L  903.1394 843.3068  L  904.5984 855.4273  L  905.5711 863.3997  L  906.0575 863.2648  L  907.5165 870.4260  L  908.2460 843.7333  L  908.7324 820.7890  L  909.7051 848.7750  L  910.3130 838.0987  L  911.0425 821.3919  L  911.6504 844.6011  L  912.1368 821.2146  L  912.8663 820.3224  L  913.2311 814.8587  L  913.5958 787.8359  L  914.4469 781.1919  L  914.6901 820.6470  L  915.2980 838.5123  L  915.4196 838.8387  L  916.3923 836.9206  L  917.4866 821.3011  L  917.6082 829.3691  L  918.0945 831.0835  L  918.3377 845.1508  L  919.1888 848.0646  L  919.6751 823.6023  L  920.5262 822.0923  L  921.2558 838.2265  L  922.1069 830.8876  L  922.5932 804.6201  L  922.7148 780.0497  L  923.2011 781.7953  L  923.5659 720.7675  L  924.2954 772.4539  L  925.2681 812.1609  L  925.6329 789.0741  L  926.4840 763.1738  L  927.3351 765.0178  L  927.9430 669.2854  L  928.0646 626.4199  L  928.5509 598.7204  L  929.2805 561.0995  L  929.7668 508.0876  L  929.8884 480.1448  L  930.2531 524.4127  L  930.6179 772.2016  L  930.9827 825.0944  L  931.1043 846.5087  L  931.2258 836.0016  L  931.8338 838.3711  L  932.0769 763.0993  L  932.3201 736.9545  L  932.9280 728.9751  L  933.4144 686.3823  L  933.9007 610.7997  L  934.5087 534.3007  L  934.6303 80.0000  L  935.1166 687.0032  L  936.0893 847.3028  L  936.6972 845.0163  L  937.1836 839.6579  L  937.7915 761.5358  L  938.2778 677.7169  L  939.0074 703.7199  L  939.7369 734.2301  L  940.3448 767.2982  L  940.5880 759.2316  L  940.8312 845.3130  L  941.0743 794.7183  L  941.8038 788.7210  L  942.0470 788.0020  L  943.0197 788.9286  L  943.8708 811.0300  L  944.2356 798.6650  L  944.7219 808.8348  L  945.4514 830.6080  L  946.4241 866.6839  L  947.8832 861.1183  L  948.6127 855.1273  L  949.5854 809.9921  L  950.3149 708.5982  L  950.9228 769.6848  L  951.7739 730.7644  L  952.1387 734.6043  L  952.8682 747.0986  L  953.7193 694.5491  L  954.4488 712.5919  L  955.1783 719.9304  L  956.1510 772.5650  L  956.8806 706.1586  L  957.0021 352.3874  L  957.4885 707.7955  L  958.0964 605.1077  L  958.5828 694.7299  L  958.7043 755.5595  L  959.3123 842.9220  L  960.6497 849.5359  L  961.3792 804.9312  L  961.8656 811.1630  L  962.1088 779.2018  L  962.8383 727.0465  L  963.5678 706.7713  L  964.2973 619.1511  L  964.9052 505.5248  L  965.2700 459.3392  L  965.6348 470.8609  L  965.8779 462.0618  L  966.2427 451.1906  L  966.3643 443.2388  L  966.4859 470.6514  L  967.3370 828.0252  L  968.7960 844.9285  L  970.1335 851.3533  L  970.6198 836.5518  L  971.1062 810.2078  L  971.7141 757.1564  L  972.3220 771.6898  L  972.6868 751.0498  L  973.5379 762.8892  L  974.5106 764.6112  L  975.6048 777.8448  L  976.3344 762.8411  L  976.8207 720.3445  L  977.0639 780.6093  L  977.4286 809.1530  L  978.0366 825.0389  L  978.8877 828.8546  L  979.6172 813.2902  L  979.7388 813.3647  L  980.4683 830.5043  L  981.5626 860.3560  L  981.6842 786.6989  L  981.9273 772.5006  L  982.2921 747.4780  L  982.9000 697.1557  L  983.3864 684.1959  L  984.2375 671.1006  L  984.7238 713.9715  L  985.4533 689.9878  L  986.0613 684.9301  L  986.1829 740.7085  L  986.9124 784.3421  L  987.1555 749.2809  L  987.5203 734.1046  L  988.0066 724.3969  L  988.1282 738.4484  L  988.6146 770.9483  L  988.8578 793.0876  L  989.2225 808.3117  L  989.9520 826.0783  L  991.4111 844.0622  L  992.3838 856.4592  L  993.5996 853.8632  L  995.1802 866.2190  L  996.2745 853.8969  L  997.0040 846.7645  L  997.7336 864.0943  L  999.3142 871.6418  L  999.8005 861.7606  L  1000.5300 868.5468  L  1001.2596 867.2070  L  1002.1107 845.3651  L  1002.7186 823.1181  L  1003.3265 787.2841  L  1003.4481 766.5586  L  1004.6640 819.2937  L  1005.1503 824.1300  L  1005.5151 826.4073  L  1006.6094 826.6259  L  1007.7036 782.3201  L  1008.3116 708.6919  L  1009.1627 713.5371  L  1010.0138 745.4032  L  1010.6217 770.8491  L  1010.7433 753.7804  L  1011.5944 754.2829  L  1012.6887 748.4038  L  1013.2966 715.9480  L  1013.9045 680.7470  L  1014.5125 693.4690  L  1015.2420 795.3422  L  1015.9715 808.9547  L  1016.2147 822.4416  L  1016.7010 819.5808  L  1016.9442 828.7674  L  1017.0658 837.1413  L  1017.5521 851.7562  L  1018.1601 837.1299  L  1018.2816 790.7263  L  1018.7680 788.5570  L  1019.1327 769.6328  L  1019.6191 773.7365  L  1019.8623 780.7515  L  1020.2270 746.1567  L  1020.8350 682.2821  L  1021.3213 675.5819  L  1021.8076 717.2743  L  1022.0508 716.9789  L  1023.1451 742.4623  L  1023.2667 759.5880  L  1023.9962 755.2975  L  1024.6041 762.5819  L  1024.7257 743.9781  L  1025.0905 734.4904  L  1025.8200 731.9026  L  1026.6711 802.5380  L  1027.4006 782.5629  L  1027.5222 792.8365  L  1028.0085 802.5105  L  1028.1301 826.6424  L  1028.7381 850.8765  L  1029.3460 846.4999  L  1029.9539 835.9253  L  1030.9266 792.0333  L  1031.7777 785.1957  L  1031.8993 765.7679  L  1032.3857 747.3597  L  1033.3583 790.7220  L  1033.4799 805.8660  L  1033.8447 758.5443  L  1034.6958 748.4869  L  1035.4253 773.4356  L  1036.1548 749.1954  L  1036.7628 651.1922  L  1037.2491 776.0744  L  1037.9786 774.1154  L  1038.1002 774.9500  L  1038.5866 785.6382  L  1038.7081 789.8646  L  1039.1945 839.4434  L  1039.5592 803.5537  L  1039.8024 782.6177  L  1040.0456 817.1728  L  1040.4104 811.6821  L  1040.8967 736.3695  L  1041.2615 724.5400  L  1041.5046 730.8481  L  1042.2341 734.5814  L  1043.0853 727.2677  L  1043.8148 711.6729  L  1044.4227 742.3039  L  1044.5443 738.2022  L  1044.9090 742.2720  L  1045.1522 739.9687  L  1045.8817 795.1335  L  1046.3681 823.1417  L  1046.8544 821.9551  L  1047.7055 823.9398  L  1048.3135 765.5048  L  1048.9214 726.4001  L  1049.6509 768.8399  L  1050.1373 820.9459  L  1050.5020 813.5921  L  1050.6236 800.7501  L  1051.5963 809.6919  L  1052.6906 808.8619  L  1052.8122 787.2464  L  1053.1769 760.8678  L  1053.4201 780.5408  L  1053.6633 807.8352  L  1054.1496 807.2765  L  1055.1223 817.4780  L  1055.7302 825.7684  L  1055.9734 823.0408  L  1057.1893 825.8562  L  1058.0404 851.6546  L  1058.5267 837.2965  L  1058.8915 803.6966  L  1059.0131 808.4839  L  1059.7426 754.6667  L  1060.4721 703.1968  L  1061.0800 680.7541  L  1061.8095 750.3694  L  1061.9311 746.5973  L  1062.7822 747.9252  L  1063.5118 772.7790  L  1064.1197 797.5537  L  1064.6060 769.5394  L  1065.4571 742.0022  L  1066.0651 775.8331  L  1066.1867 776.2233  L  1066.5514 767.4947  L  1067.1593 686.1866  L  1067.5241 724.8565  L  1067.6457 763.3763  L  1068.1320 823.2681  L  1068.2536 856.7871  L  1068.8616 846.5109  L  1069.2263 803.3821  L  1069.3479 802.5105  L  1069.9558 750.0403  L  1070.3206 711.7199  L  1070.6853 685.1292  L  1071.2933 648.5989  L  1071.9012 698.6522  L  1072.6307 724.5574  L  1073.2387 678.8709  L  1073.3602 673.6844  L  1074.0898 691.0781  L  1074.8193 733.8451  L  1075.3056 673.1358  L  1075.9136 694.4792  L  1076.5215 721.9639  L  1077.0078 759.5042  L  1077.4942 801.3102  L  1077.8589 799.9580  L  1078.1021 822.7783  L  1079.1964 808.9321  L  1079.6827 783.0252  L  1079.9259 793.3678  L  1080.8986 799.8795  L  1081.1418 806.5787  L  1081.2634 854.6240  L  1081.9929 871.8432  L  1083.6951 864.7322  L  1085.0325 866.4736  L  1085.7621 856.2071  L  1087.0995 870.1830  L  1088.6801 876.8699  L  1089.4096 871.4780  L  1090.0176 871.5660  L  1091.2334 880.0000  L  1091.9630 861.0350  L  1093.7867 875.3872  L  1094.2731 863.9950  L  1094.7594 828.2421  L  1095.0026 800.3385  L  1095.2458 812.4801  L  1097.3128 874.9132  L  1098.8934 867.8914  L  1099.1365 799.9613  L  1099.2581 820.9146  L  1099.7445 851.3217  L  1099.9877 799.1066  L  1100.4740 848.5546  L  1101.0819 864.7543  L  1102.4194 871.6209  L  1103.3921 879.3520  L  1104.0000 854.0184 " fill="none" id="2014-02-01T22:18:12Z (t1) path" stroke="#e60000" stroke-width="2" />
	</g>	<text fill="#000000" font-family="Verdana" font-size="12" id="x-axis title" text-anchor="middle" x="592" y="957">Elapsed time
	</text>	<text fill="#000000" font-family="Verdana" font-size="12" id="y-axis title" text-anchor="middle" transform="translate(14,480) rotate(-90) translate(-14,-480)" x="14" y="480">Speed
	</text>

	<rect fill="none" height="959" id="image_boundary" opacity="0" stroke="#000000" stroke-width="1" width="1183" x="0.5" y="0.5" />
	
</svg>
